# xmcd
#
# Track frame offsets:
#	150
#	16754
#	29165
#	42678
#	55041
#	72498
#	86316
#	96042
#	115388
#	127172
#
# Disc length: 1919 seconds
# Revision: 0
# Processed by: cddbd v1.5.2PL0 Copyright (c) Steve Scherf et al.
# Submitted via: dBpowerAMP V12.0
#
DISCID=8a077d0a
DTITLE=Richard Magnusson and Rag Wagon - Outlaw Country Band
DYEAR=2013
DGENRE=Country
TTITLE0=Outlaw Country Band
TTITLE1=Like Me
TTITLE2=Legend Wannabe
TTITLE3=Another Honky Tonk Hero
TTITLE4=Write A Song
TTITLE5=When Friday Night Is Coming Up
TTITLE6=Unfamiliar Women
TTITLE7=Walk A Little Faster
TTITLE8=Game Of Desire
TTITLE9=A Few Old Memories
EXTD=
EXTT0=
EXTT1=
EXTT2=
EXTT3=
EXTT4=
EXTT5=
EXTT6=
EXTT7=
EXTT8=
EXTT9=
PLAYORDER=
